<svg width="18" height="4" viewBox="0 0 18 4" fill="none" xmlns="http://www.w3.org/2000/svg">
<path fill-rule="evenodd" clip-rule="evenodd" d="M3.83337 2C3.83337 2.82843 3.1618 3.5 2.33337 3.5C1.50495 3.5 0.833374 2.82843 0.833374 2C0.833374 1.17157 1.50495 0.5 2.33337 0.5C3.1618 0.5 3.83337 1.17157 3.83337 2ZM10.5 2C10.5 2.82843 9.82847 3.5 9.00004 3.5C8.17161 3.5 7.50004 2.82843 7.50004 2C7.50004 1.17157 8.17161 0.5 9.00004 0.5C9.82847 0.5 10.5 1.17157 10.5 2ZM15.6667 3.5C16.4951 3.5 17.1667 2.82843 17.1667 2C17.1667 1.17157 16.4951 0.5 15.6667 0.5C14.8383 0.5 14.1667 1.17157 14.1667 2C14.1667 2.82843 14.8383 3.5 15.6667 3.5Z" fill="#C5C7CA"/>
</svg>
